<svg xmlns="http://www.w3.org/2000/svg" xml:space="preserve" width="800" height="800" viewBox="0 0 950 950"><path d="M857.7 141.3c-30.1-30.1-65.1-53.5-104.3-69.4-37.8-15.3-77.7-23.2-118.7-23.2-40.9 0-80.9 7.7-118.7 22.9-39.1 15.8-74.2 38.9-104.3 68.8L73.1 478.3c-23.8 23.6-42.2 51.1-54.8 81.9C6.2 589.9 0 621.3 0 653.6c0 32.1 6.1 63.4 18.1 93.1 12.4 30.7 30.7 58.2 54.3 81.899 23.6 23.7 51.2 42 81.9 54.5 29.7 12.101 61.1 18.2 93.3 18.2s63.6-6.1 93.3-18.1c30.8-12.5 58.399-30.8 82.1-54.4l269.101-268c17.3-17.2 30.6-37.3 39.699-59.7 8.801-21.6 13.2-44.5 13.2-67.899 0-48.2-18.8-93.2-52.899-127-34-34.2-79.2-53.1-127.301-53.3-48.199-.1-93.5 18.6-127.6 52.7L269.6 473.3c-8.5 8.5-13.1 19.7-13.1 31.601 0 11.899 4.6 23.199 13.1 31.6l.7.7c17.4 17.5 45.8 17.5 63.3.1l168-167.5c35.1-34.8 92.1-35 127.199-.399 16.9 16.8 26.101 39.3 26.101 63.399 0 24.3-9.4 47.101-26.5 64.101l-269 268c-.5.5-.9.899-1.2 1.5-29.7 28.899-68.9 44.699-110.5 44.5-41.9-.2-81.2-16.5-110.6-46-14.7-15-26.1-32.5-34-52C95.5 694 91.7 674 91.7 653.6c0-41.8 16.1-80.899 45.4-110.3.4-.3.7-.6 1.1-.899l337.9-337.8c.3-.3.6-.7.899-1.1 21.4-21 46.3-37.4 74-48.5 27-10.8 55.4-16.2 84.601-16.2 29.199 0 57.699 5.6 84.6 16.4 27.9 11.3 52.9 27.8 74.3 49.1 21.4 21.4 37.9 46.4 49.2 74.3 10.9 26.9 16.4 55.4 16.4 84.6 0 29.3-5.5 57.9-16.5 85-11.301 28-28 53.2-49.5 74.8l-233.5 232.8c-8.5 8.5-13.2 19.7-13.2 31.7s4.7 23.2 13.1 31.6l.5.5c17.4 17.4 45.8 17.4 63.2 0L857.5 586.9c30.101-30.1 53.5-65.2 69.4-104.3 15.4-37.8 23.1-77.7 23.1-118.7 0-40.9-7.8-80.8-23.1-118.5-15.799-39.1-39.1-74.1-69.2-104.1"/></svg>