<svg xmlns="http://www.w3.org/2000/svg" width="48" height="48" baseProfile="basic"><linearGradient id="a" x1="3.381" x2="44.593" y1="25.73" y2="25.73" gradientUnits="userSpaceOnUse"><stop offset="0" stop-color="#33c481"/><stop offset="1" stop-color="#21a366"/></linearGradient><path fill="url(#a)" d="m23.987 17-5.094-8.727A.55.55 0 0 0 18.418 8H3.931a.55.55 0 0 0-.474.827l20.056 34.36a.55.55 0 0 0 .949 0l20.056-34.36A.55.55 0 0 0 44.043 8H29.556a.55.55 0 0 0-.475.273z"/><linearGradient id="b" x1="11.146" x2="36.828" y1="19" y2="19" gradientUnits="userSpaceOnUse"><stop offset=".189" stop-color="#313437"/><stop offset="1" stop-color="#45494d"/></linearGradient><path fill="url(#b)" d="m29.24 8-5.253 9-5.253-9h-7.588l12.841 22L36.828 8z"/><path fill="none" d="M23.987 30 36.828 8H29.24l-5.253 9-5.253-9h-7.588z"/><path fill="none" d="M28.082 8h-8.19l4.095 7.016z"/><path d="m37.26 8.252-12.841 22-.432.74-.432-.74-12.841-22L10.567 8h-.579l.294.504 12.841 22 .864 1.48.864-1.48 12.841-22L37.986 8h-.579zM36.828 9h.005z" opacity=".05"/><path d="M36.828 8 23.987 30 11.146 8h-.579l.147.252 12.841 22 .432.74.432-.74 12.841-22L37.407 8h-.574z" opacity=".07"/></svg>